<mxfile host="app.diagrams.net" agent="Mozilla/5.0 (Windows NT 10.0; Win64; x64) AppleWebKit/537.36 (KHTML, like Gecko) Chrome/133.0.0.0 Safari/537.36 Edg/133.0.0.0" version="26.0.16">
  <diagram name="Page-1" id="M2eIzOHttRKe6d272MiC">
    <mxGraphModel dx="1042" dy="627" grid="1" gridSize="10" guides="1" tooltips="1" connect="1" arrows="1" fold="1" page="1" pageScale="1" pageWidth="2336" pageHeight="1654" math="0" shadow="0">
      <root>
        <mxCell id="0" />
        <mxCell id="1" parent="0" />
        <mxCell id="kKdbPw2AB0EhzfsVSWp8-3" value="" style="edgeStyle=orthogonalEdgeStyle;rounded=0;orthogonalLoop=1;jettySize=auto;html=1;" edge="1" parent="1" source="kKdbPw2AB0EhzfsVSWp8-1" target="kKdbPw2AB0EhzfsVSWp8-2">
          <mxGeometry relative="1" as="geometry" />
        </mxCell>
        <mxCell id="kKdbPw2AB0EhzfsVSWp8-1" value="Generate a word" style="rounded=0;whiteSpace=wrap;html=1;" vertex="1" parent="1">
          <mxGeometry x="240" y="60" width="120" height="30" as="geometry" />
        </mxCell>
        <mxCell id="kKdbPw2AB0EhzfsVSWp8-5" value="" style="edgeStyle=orthogonalEdgeStyle;rounded=0;orthogonalLoop=1;jettySize=auto;html=1;" edge="1" parent="1" source="kKdbPw2AB0EhzfsVSWp8-2" target="kKdbPw2AB0EhzfsVSWp8-4">
          <mxGeometry relative="1" as="geometry" />
        </mxCell>
        <mxCell id="kKdbPw2AB0EhzfsVSWp8-2" value="Replace word with underscores" style="whiteSpace=wrap;html=1;rounded=0;" vertex="1" parent="1">
          <mxGeometry x="240" y="120" width="120" height="45" as="geometry" />
        </mxCell>
        <mxCell id="kKdbPw2AB0EhzfsVSWp8-7" value="" style="edgeStyle=orthogonalEdgeStyle;rounded=0;orthogonalLoop=1;jettySize=auto;html=1;" edge="1" parent="1" source="kKdbPw2AB0EhzfsVSWp8-4" target="kKdbPw2AB0EhzfsVSWp8-6">
          <mxGeometry relative="1" as="geometry" />
        </mxCell>
        <mxCell id="kKdbPw2AB0EhzfsVSWp8-4" value="Ask user to guess a letter" style="whiteSpace=wrap;html=1;rounded=0;" vertex="1" parent="1">
          <mxGeometry x="240" y="190" width="120" height="52.5" as="geometry" />
        </mxCell>
        <mxCell id="kKdbPw2AB0EhzfsVSWp8-9" value="Yes" style="edgeStyle=orthogonalEdgeStyle;rounded=0;orthogonalLoop=1;jettySize=auto;html=1;" edge="1" parent="1" source="kKdbPw2AB0EhzfsVSWp8-6" target="kKdbPw2AB0EhzfsVSWp8-8">
          <mxGeometry relative="1" as="geometry" />
        </mxCell>
        <mxCell id="kKdbPw2AB0EhzfsVSWp8-16" value="No" style="edgeStyle=orthogonalEdgeStyle;rounded=0;orthogonalLoop=1;jettySize=auto;html=1;" edge="1" parent="1" source="kKdbPw2AB0EhzfsVSWp8-6" target="kKdbPw2AB0EhzfsVSWp8-15">
          <mxGeometry relative="1" as="geometry" />
        </mxCell>
        <mxCell id="kKdbPw2AB0EhzfsVSWp8-6" value="Does the letter exist in the word?" style="rhombus;whiteSpace=wrap;html=1;rounded=0;" vertex="1" parent="1">
          <mxGeometry x="230" y="280" width="140" height="88.75" as="geometry" />
        </mxCell>
        <mxCell id="kKdbPw2AB0EhzfsVSWp8-11" value="" style="edgeStyle=orthogonalEdgeStyle;rounded=0;orthogonalLoop=1;jettySize=auto;html=1;" edge="1" parent="1" source="kKdbPw2AB0EhzfsVSWp8-8" target="kKdbPw2AB0EhzfsVSWp8-10">
          <mxGeometry relative="1" as="geometry" />
        </mxCell>
        <mxCell id="kKdbPw2AB0EhzfsVSWp8-8" value="Replace underscore with the letter/s in word" style="whiteSpace=wrap;html=1;rounded=0;" vertex="1" parent="1">
          <mxGeometry x="380" y="380.005" width="120" height="60" as="geometry" />
        </mxCell>
        <mxCell id="kKdbPw2AB0EhzfsVSWp8-12" value="No" style="edgeStyle=orthogonalEdgeStyle;rounded=0;orthogonalLoop=1;jettySize=auto;html=1;entryX=1;entryY=0.5;entryDx=0;entryDy=0;exitX=1;exitY=0.5;exitDx=0;exitDy=0;" edge="1" parent="1" source="kKdbPw2AB0EhzfsVSWp8-10" target="kKdbPw2AB0EhzfsVSWp8-4">
          <mxGeometry relative="1" as="geometry">
            <Array as="points">
              <mxPoint x="540" y="550" />
              <mxPoint x="540" y="216" />
            </Array>
          </mxGeometry>
        </mxCell>
        <mxCell id="kKdbPw2AB0EhzfsVSWp8-14" value="Yes" style="edgeStyle=orthogonalEdgeStyle;rounded=0;orthogonalLoop=1;jettySize=auto;html=1;" edge="1" parent="1" source="kKdbPw2AB0EhzfsVSWp8-10" target="kKdbPw2AB0EhzfsVSWp8-13">
          <mxGeometry relative="1" as="geometry" />
        </mxCell>
        <mxCell id="kKdbPw2AB0EhzfsVSWp8-10" value="Is the word full?" style="rhombus;whiteSpace=wrap;html=1;rounded=0;" vertex="1" parent="1">
          <mxGeometry x="360" y="510" width="160" height="80" as="geometry" />
        </mxCell>
        <mxCell id="kKdbPw2AB0EhzfsVSWp8-13" value="Game Over" style="rounded=0;whiteSpace=wrap;html=1;" vertex="1" parent="1">
          <mxGeometry x="240" y="710" width="120" height="60" as="geometry" />
        </mxCell>
        <mxCell id="kKdbPw2AB0EhzfsVSWp8-20" value="" style="edgeStyle=orthogonalEdgeStyle;rounded=0;orthogonalLoop=1;jettySize=auto;html=1;" edge="1" parent="1" source="kKdbPw2AB0EhzfsVSWp8-15" target="kKdbPw2AB0EhzfsVSWp8-19">
          <mxGeometry relative="1" as="geometry" />
        </mxCell>
        <mxCell id="kKdbPw2AB0EhzfsVSWp8-15" value="Add an element in hangman" style="rounded=0;whiteSpace=wrap;html=1;" vertex="1" parent="1">
          <mxGeometry x="83" y="390" width="120" height="60" as="geometry" />
        </mxCell>
        <mxCell id="kKdbPw2AB0EhzfsVSWp8-24" value="Yes" style="edgeStyle=orthogonalEdgeStyle;rounded=0;orthogonalLoop=1;jettySize=auto;html=1;entryX=0.5;entryY=0;entryDx=0;entryDy=0;" edge="1" parent="1" source="kKdbPw2AB0EhzfsVSWp8-19" target="kKdbPw2AB0EhzfsVSWp8-13">
          <mxGeometry relative="1" as="geometry">
            <Array as="points">
              <mxPoint x="140" y="650" />
              <mxPoint x="300" y="650" />
              <mxPoint x="300" y="710" />
            </Array>
          </mxGeometry>
        </mxCell>
        <mxCell id="kKdbPw2AB0EhzfsVSWp8-25" value="No" style="edgeStyle=orthogonalEdgeStyle;rounded=0;orthogonalLoop=1;jettySize=auto;html=1;entryX=0;entryY=0.5;entryDx=0;entryDy=0;exitX=0;exitY=0.5;exitDx=0;exitDy=0;" edge="1" parent="1" source="kKdbPw2AB0EhzfsVSWp8-19" target="kKdbPw2AB0EhzfsVSWp8-4">
          <mxGeometry relative="1" as="geometry">
            <Array as="points">
              <mxPoint x="40" y="550" />
              <mxPoint x="40" y="216" />
            </Array>
          </mxGeometry>
        </mxCell>
        <mxCell id="kKdbPw2AB0EhzfsVSWp8-19" value="Is the hangman finished?" style="rhombus;whiteSpace=wrap;html=1;rounded=0;" vertex="1" parent="1">
          <mxGeometry x="73" y="510" width="140" height="80" as="geometry" />
        </mxCell>
        <mxCell id="kKdbPw2AB0EhzfsVSWp8-28" style="edgeStyle=orthogonalEdgeStyle;rounded=0;orthogonalLoop=1;jettySize=auto;html=1;" edge="1" parent="1" source="kKdbPw2AB0EhzfsVSWp8-26" target="kKdbPw2AB0EhzfsVSWp8-1">
          <mxGeometry relative="1" as="geometry" />
        </mxCell>
        <mxCell id="kKdbPw2AB0EhzfsVSWp8-26" value="Start" style="whiteSpace=wrap;html=1;rounded=0;" vertex="1" parent="1">
          <mxGeometry x="240" y="10" width="120" height="25" as="geometry" />
        </mxCell>
      </root>
    </mxGraphModel>
  </diagram>
</mxfile>
